<svg width="45" height="36" viewBox="0 0 45 36" fill="none" xmlns="http://www.w3.org/2000/svg">
<path opacity="0.68" d="M8.97852 15.7352V30.1594C14.5043 32.1008 20.3938 32.8206 26.2317 32.268C29.4317 31.9519 32.5802 31.2484 35.6065 30.1734V14.6855L8.97852 15.7352Z" fill="#194EB5"/>
<path d="M8.80371 13.9435V28.3677C14.3312 30.302 20.2201 31.017 26.0569 30.4623C29.2565 30.144 32.4048 29.4406 35.4317 28.3677V12.8799L8.80371 13.9435Z" fill="#51BCF3"/>
<path opacity="0.68" d="M44.6601 12.0779L22.3277 22.9848L0 12.0779L22.3277 1.69824L44.6601 12.0779Z" fill="#194EB5"/>
<path d="M45.0001 10.375L22.6724 21.2865L0.344727 10.375L22.6724 0L45.0001 10.375Z" fill="#021951"/>
<path d="M22.6722 9.96875L12.8584 15.6041V32.4402" stroke="#F9DB6E" stroke-width="3" stroke-linecap="round" stroke-linejoin="round"/>
<path d="M14.3166 36.0005H11.4844V30.4024C11.4844 30.0313 11.6336 29.6753 11.8992 29.4128C12.1647 29.1504 12.5249 29.0029 12.9005 29.0029C13.2761 29.0029 13.6363 29.1504 13.9019 29.4128C14.1674 29.6753 14.3166 30.0313 14.3166 30.4024V36.0005Z" fill="#F9DB6E"/>
<path d="M17.2293 4.40387C18.7871 3.54084 20.3637 2.71041 21.9498 1.89869L22.0583 1.84277L22.1952 1.89869C28.3003 4.47379 34.311 7.2542 40.2273 10.2398L40.841 10.5477C39.6892 11.0468 38.5421 11.574 37.3856 12.0591C36.4415 12.4603 35.4974 12.8755 34.5109 13.2534C35.403 12.7263 36.3141 12.2318 37.2157 11.7279C38.1173 11.2241 39.0378 10.7343 39.9488 10.2445V10.8089C33.8595 8.19653 27.8582 5.39751 21.9451 2.41189H22.1905C20.5478 3.10232 18.8925 3.76631 17.2246 4.40387H17.2293Z" fill="#51BCF3"/>
<path d="M32.3443 19.7102V26.7077L28.2422 28.2985L33.6707 27.1556V19.1924L32.3443 19.7102Z" fill="white"/>
</svg>
