<?xml version="1.0" encoding="utf-8"?>
<!-- Generator: Adobe Illustrator 19.0.0, SVG Export Plug-In . SVG Version: 6.00 Build 0)  -->
<svg version="1.1" id="Layer_1" xmlns="http://www.w3.org/2000/svg" xmlns:xlink="http://www.w3.org/1999/xlink" x="0px" y="0px"
	 viewBox="-375 262 30 38" style="enable-background:new -375 262 30 38;" xml:space="preserve">
<style type="text/css">
	.st0{fill:#0377F9;}
	.st1{fill:#FFFFFF;}
	.st2{fill:#0377F9;stroke:#0377F9;stroke-width:2;stroke-linecap:round;stroke-miterlimit:10;}
</style>
<g>
	<path class="st0" d="M-361.2,290c-7.6-2.7-13.2-6.6-13.4-9h0c-0.1,0.5-0.2,1-0.3,1.6c-0.5,3.6,0.4,7.3,2.4,10.3
		c2,3.1,5.1,5.3,8.6,6.4c3.6,1.1,7.4,0.9,10.9-0.5c3.4-1.4,6.3-3.9,8-7.2C-346.8,293.4-353.6,292.7-361.2,290z"/>
	<path class="st0" d="M-345.2,289c0.8-2.2-4.6-6.3-12.2-9.1c-7.5-2.8-14.3-3.2-15.1-1c-0.8,2.2,4.6,6.3,12.2,9.1
		C-352.8,290.8-346.1,291.3-345.2,289z"/>
	<path class="st1" d="M-347.7,287.7c0.5-1.3-4.1-4.1-10.1-6.3c-6-2.2-11.3-3-11.8-1.7c-0.5,1.3,4.1,4.1,10.1,6.3
		C-353.4,288.2-348.1,289-347.7,287.7z"/>
	<path class="st0" d="M-366,281l8.4,1.7l6.6,3.3l-8.1-1.5L-366,281z"/>
	<path class="st2" d="M-370,279l3,1"/>
	<path class="st2" d="M-350,287l3,1"/>
	<path class="st0" d="M-346.3,289c-0.2,0-0.3,0-0.4-0.1c-0.1-0.1-0.3-0.2-0.3-0.3c-0.1-0.1-0.2-0.3-0.2-0.4s0-0.3,0-0.5
		c0.1-0.4,0.2-0.9,0.2-1.3c0.4-3-0.3-6-1.8-8.5c-1.6-2.5-3.9-4.4-6.7-5.3c-2.7-0.9-5.7-0.8-8.4,0.4c-2.7,1.2-4.8,3.2-6.2,5.9
		c-0.1,0.1-0.1,0.2-0.2,0.3s-0.2,0.2-0.3,0.2c-0.1,0-0.3,0.1-0.4,0.1c-0.1,0-0.3,0-0.4-0.1c-0.1-0.1-0.2-0.2-0.3-0.3
		c-0.1-0.1-0.1-0.2-0.2-0.4c0-0.1,0-0.3,0-0.4c0-0.1,0.1-0.3,0.1-0.4c1.5-3.1,4.1-5.5,7.2-6.9s6.5-1.5,9.7-0.5
		c3.2,1,5.9,3.2,7.7,6.1c1.8,2.9,2.6,6.4,2.1,9.9c-0.1,0.5-0.1,1-0.3,1.5c-0.1,0.2-0.2,0.4-0.3,0.6
		C-345.9,288.9-346.1,289-346.3,289z"/>
	<path class="st1" d="M-354.5,277c1.9,0,3.5-1.6,3.5-3.5s-1.6-3.5-3.5-3.5s-3.5,1.6-3.5,3.5S-356.4,277-354.5,277z"/>
	<path class="st0" d="M-355,276c1.1,0,2-1.1,2-2.5s-0.9-2.5-2-2.5s-2,1.1-2,2.5S-356.1,276-355,276z"/>
	<path class="st0" d="M-353.8,270l-1.2-2.2l5-5.8l-1.2,7.3L-353.8,270z"/>
	<path class="st0" d="M-357,276l0.7,2l1.3-0.7L-357,276z"/>
</g>
</svg>
