<svg width="278" height="192" viewBox="0 0 278 192" fill="none" xmlns="http://www.w3.org/2000/svg">
<path d="M11.0962 181.998C13.0005 181.998 14.7054 181.656 16.2109 180.973C17.7165 180.289 18.4692 178.983 18.4692 177.054V175.504H16.6138C16.3289 175.504 16.1092 175.402 15.9546 175.199C15.8 174.987 15.7227 174.747 15.7227 174.479C15.7227 174.177 15.7878 173.917 15.918 173.697C16.0563 173.469 16.2801 173.355 16.5894 173.355H21.6675C21.9767 173.355 22.2005 173.469 22.3389 173.697C22.4772 173.917 22.5464 174.177 22.5464 174.479C22.5464 174.747 22.465 174.987 22.3022 175.199C22.1476 175.402 21.9279 175.504 21.6431 175.504H20.6177V183.121C20.6177 183.43 20.5037 183.654 20.2759 183.792C20.0562 183.931 19.7957 184 19.4946 184C19.2261 184 18.986 183.923 18.7744 183.768C18.571 183.605 18.4692 183.382 18.4692 183.097V181.595C17.7612 182.564 16.7643 183.259 15.4785 183.683C14.2008 184.098 12.7401 184.305 11.0962 184.305C7.88168 184.305 5.25309 183.333 3.21039 181.388C1.16779 179.435 0.146484 176.847 0.146484 173.624C0.146484 170.361 1.19628 167.736 3.29588 165.75C5.40358 163.765 8.08509 162.772 11.3403 162.772C12.8133 162.772 14.0869 162.992 15.1611 163.431C16.2354 163.862 17.1956 164.461 18.042 165.226V163.956C18.042 163.647 18.1519 163.423 18.3716 163.285C18.5994 163.146 18.8639 163.077 19.165 163.077C19.4336 163.077 19.6696 163.159 19.873 163.321C20.0846 163.476 20.1904 163.696 20.1904 163.98V168.546C20.1904 168.831 20.0846 169.055 19.873 169.217C19.6696 169.372 19.4336 169.449 19.165 169.449C18.8883 169.449 18.6808 169.343 18.5425 169.132C18.4041 168.912 18.2699 168.701 18.1396 168.497C17.391 167.447 16.4673 166.617 15.3687 166.007C14.2782 165.388 12.9354 165.079 11.3403 165.079C8.84199 165.079 6.88479 165.881 5.46879 167.484C4.05269 169.079 3.34469 171.126 3.34469 173.624C3.34469 176.09 4.02429 178.104 5.38329 179.667C6.75049 181.221 8.65478 181.998 11.0962 181.998ZM34.659 171.573C33.113 171.573 31.913 172.074 31.058 173.075C30.212 174.076 29.789 175.349 29.789 176.896C29.789 178.45 30.212 179.728 31.058 180.729C31.913 181.729 33.113 182.23 34.659 182.23C36.165 182.23 37.328 181.721 38.15 180.704C38.972 179.687 39.383 178.417 39.383 176.896C39.383 175.374 38.972 174.108 38.15 173.099C37.328 172.082 36.165 171.573 34.659 171.573ZM34.659 184.305C32.405 184.305 30.578 183.634 29.178 182.291C27.778 180.948 27.079 179.15 27.079 176.896C27.079 174.633 27.778 172.835 29.178 171.5C30.586 170.165 32.413 169.498 34.659 169.498C36.873 169.498 38.663 170.178 40.03 171.537C41.397 172.888 42.081 174.674 42.081 176.896C42.081 179.117 41.397 180.908 40.03 182.267C38.663 183.626 36.873 184.305 34.659 184.305ZM47.614 173.49C47.614 171.919 48.176 170.861 49.299 170.316C50.422 169.771 51.622 169.498 52.9 169.498C53.73 169.498 54.552 169.673 55.366 170.023C56.18 170.365 56.737 170.804 57.038 171.341L57.05 170.304C57.05 170.051 57.14 169.852 57.319 169.706C57.498 169.551 57.714 169.474 57.966 169.474C58.324 169.474 58.592 169.555 58.771 169.718C58.951 169.881 59.04 170.117 59.04 170.426L58.991 173.954C58.959 174.23 58.853 174.442 58.674 174.588C58.495 174.727 58.267 174.796 57.99 174.796C57.722 174.796 57.543 174.715 57.453 174.552C57.364 174.389 57.278 174.157 57.197 173.856C56.92 173.001 56.346 172.346 55.476 171.891C54.613 171.435 53.746 171.207 52.875 171.207C52.127 171.207 51.472 171.354 50.91 171.646C50.349 171.939 50.068 172.383 50.068 172.977C50.068 173.49 50.235 173.889 50.568 174.173C50.902 174.458 51.443 174.694 52.192 174.881L55.317 175.907C56.407 176.273 57.396 176.737 58.283 177.298C59.17 177.86 59.614 178.828 59.614 180.204C59.614 181.555 59.15 182.58 58.222 183.28C57.303 183.98 56.009 184.33 54.34 184.33C53.47 184.33 52.513 184.191 51.472 183.915C50.43 183.63 49.677 183.231 49.213 182.718C49.213 183.255 49.116 183.605 48.92 183.768C48.733 183.923 48.501 184 48.225 184C47.915 184 47.655 183.931 47.443 183.792C47.24 183.654 47.138 183.422 47.138 183.097V178.971C47.146 178.718 47.244 178.527 47.431 178.397C47.618 178.267 47.83 178.202 48.066 178.202C48.424 178.202 48.672 178.287 48.811 178.458C48.957 178.621 49.067 178.861 49.14 179.178C49.392 180.285 49.974 181.115 50.886 181.668C51.797 182.222 52.904 182.499 54.206 182.499C54.995 182.499 55.671 182.348 56.232 182.047C56.802 181.746 57.087 181.253 57.087 180.57C57.087 179.886 56.924 179.386 56.599 179.068C56.273 178.751 55.695 178.466 54.865 178.214L51.545 177.176C50.511 176.851 49.596 176.419 48.798 175.882C48.009 175.345 47.614 174.548 47.614 173.49ZM77.989 176.896C77.989 175.455 77.627 174.21 76.902 173.16C76.186 172.102 75.124 171.573 73.716 171.573C72.642 171.573 71.714 171.777 70.933 172.184C70.16 172.59 69.529 173.111 69.041 173.746V180.545C69.554 181.058 70.193 181.469 70.958 181.778C71.731 182.079 72.626 182.23 73.643 182.23C75.067 182.23 76.146 181.701 76.878 180.643C77.618 179.577 77.989 178.328 77.989 176.896ZM80.687 176.896C80.687 179.06 80.048 180.838 78.77 182.23C77.492 183.613 75.783 184.305 73.643 184.305C72.642 184.305 71.767 184.155 71.019 183.854C70.278 183.552 69.619 183.158 69.041 182.669V188.871H71.507C71.816 188.871 72.04 188.985 72.178 189.212C72.317 189.44 72.386 189.705 72.386 190.006C72.386 190.274 72.304 190.51 72.142 190.714C71.987 190.917 71.767 191.019 71.482 191.019H65.086C64.744 191.019 64.492 190.921 64.329 190.726C64.166 190.531 64.085 190.278 64.085 189.969C64.085 189.668 64.158 189.408 64.305 189.188C64.459 188.976 64.695 188.871 65.013 188.871H66.539V172.049L64.793 172.477C64.777 172.485 64.752 172.493 64.72 172.501C64.687 172.501 64.651 172.501 64.61 172.501C64.366 172.501 64.138 172.403 63.926 172.208C63.715 172.005 63.609 171.777 63.609 171.524C63.609 171.248 63.67 171.028 63.792 170.865C63.914 170.694 64.089 170.572 64.317 170.499L67.71 169.522C67.743 169.522 67.763 169.518 67.771 169.51C67.78 169.502 67.8 169.498 67.833 169.498H67.918C68.089 169.498 68.235 169.551 68.357 169.657C68.479 169.754 68.541 169.893 68.541 170.072L68.785 172.379C69.175 171.549 69.826 170.861 70.738 170.316C71.649 169.771 72.699 169.498 73.887 169.498C76.019 169.498 77.684 170.198 78.88 171.598C80.084 172.989 80.687 174.755 80.687 176.896ZM87.758 177.176C87.758 178.771 88.254 179.988 89.247 180.826C90.248 181.656 91.477 182.071 92.934 182.071C93.967 182.071 94.777 181.88 95.363 181.498C95.957 181.107 96.522 180.663 97.06 180.167C97.182 180.061 97.312 179.984 97.45 179.935C97.589 179.878 97.727 179.85 97.865 179.85C98.191 179.85 98.467 179.951 98.695 180.155C98.923 180.35 99.037 180.615 99.037 180.948C99.037 181.99 98.28 182.812 96.767 183.414C95.261 184.008 93.951 184.305 92.836 184.305C90.606 184.305 88.767 183.646 87.318 182.328C85.878 181.001 85.158 179.219 85.158 176.981C85.158 174.767 85.821 172.969 87.147 171.585C88.474 170.194 90.272 169.498 92.543 169.498C94.171 169.498 95.656 170.064 96.999 171.195C98.341 172.318 99.013 173.771 99.013 175.553C99.013 176.163 98.821 176.529 98.439 176.651C98.065 176.773 97.589 176.863 97.011 176.92L87.758 177.176ZM95.949 174.771C95.949 173.608 95.591 172.786 94.875 172.306C94.167 171.817 93.389 171.573 92.543 171.573C91.111 171.573 89.971 171.927 89.125 172.635C88.287 173.343 87.815 174.283 87.709 175.455L95.045 175.296C95.273 175.288 95.481 175.248 95.668 175.174C95.855 175.093 95.949 174.959 95.949 174.771ZM109.282 162.821C109.453 162.821 109.604 162.878 109.734 162.992C109.864 163.097 109.929 163.24 109.929 163.419V181.852H112.908C113.217 181.852 113.441 181.965 113.579 182.193C113.717 182.413 113.787 182.674 113.787 182.975C113.787 183.243 113.705 183.483 113.542 183.695C113.388 183.898 113.168 184 112.883 184H104.729C104.387 184 104.135 183.902 103.972 183.707C103.809 183.512 103.728 183.259 103.728 182.95C103.728 182.649 103.801 182.393 103.948 182.181C104.102 181.961 104.338 181.852 104.656 181.852H107.427V165.445L104.558 166.202C104.526 166.202 104.505 166.206 104.497 166.214C104.489 166.222 104.469 166.227 104.436 166.227C104.184 166.227 103.956 166.117 103.752 165.897C103.557 165.669 103.459 165.429 103.459 165.177C103.459 164.827 103.549 164.599 103.728 164.493C103.915 164.379 104.143 164.282 104.412 164.2L109.111 162.845C109.128 162.837 109.148 162.833 109.172 162.833C109.205 162.825 109.242 162.821 109.282 162.821ZM136.767 164.103C136.767 164.404 136.698 164.668 136.56 164.896C136.421 165.116 136.197 165.226 135.888 165.226H133.166V181.852H141.76C142.451 181.852 143.046 181.754 143.542 181.559C144.047 181.363 144.327 180.944 144.384 180.301L144.738 176.871C144.771 176.603 144.873 176.407 145.043 176.285C145.222 176.163 145.454 176.102 145.739 176.102C146.04 176.102 146.301 176.183 146.521 176.346C146.748 176.509 146.862 176.753 146.862 177.079L146.313 183.17C146.289 183.398 146.215 183.593 146.093 183.756C145.971 183.919 145.796 184 145.568 184H126.66C126.375 184 126.151 183.898 125.988 183.695C125.834 183.483 125.756 183.243 125.756 182.975C125.756 182.674 125.826 182.413 125.964 182.193C126.102 181.965 126.326 181.852 126.635 181.852H130.31V165.226H127.392C127.083 165.226 126.859 165.116 126.721 164.896C126.582 164.668 126.513 164.404 126.513 164.103C126.513 163.834 126.59 163.598 126.745 163.395C126.908 163.183 127.132 163.077 127.417 163.077H135.864C136.149 163.077 136.368 163.183 136.523 163.395C136.686 163.598 136.767 163.834 136.767 164.103ZM153.958 177.176C153.958 178.771 154.454 179.988 155.447 180.826C156.448 181.656 157.677 182.071 159.134 182.071C160.167 182.071 160.977 181.88 161.563 181.498C162.157 181.107 162.723 180.663 163.26 180.167C163.382 180.061 163.512 179.984 163.65 179.935C163.789 179.878 163.927 179.85 164.065 179.85C164.391 179.85 164.668 179.951 164.896 180.155C165.123 180.35 165.237 180.615 165.237 180.948C165.237 181.99 164.48 182.812 162.967 183.414C161.461 184.008 160.151 184.305 159.036 184.305C156.806 184.305 154.967 183.646 153.519 182.328C152.078 181.001 151.358 179.219 151.358 176.981C151.358 174.767 152.021 172.969 153.348 171.585C154.674 170.194 156.473 169.498 158.743 169.498C160.371 169.498 161.856 170.064 163.199 171.195C164.542 172.318 165.213 173.771 165.213 175.553C165.213 176.163 165.022 176.529 164.639 176.651C164.265 176.773 163.789 176.863 163.211 176.92L153.958 177.176ZM162.149 174.771C162.149 173.608 161.791 172.786 161.075 172.306C160.367 171.817 159.59 171.573 158.743 171.573C157.311 171.573 156.172 171.927 155.325 172.635C154.487 173.343 154.015 174.283 153.909 175.455L161.246 175.296C161.473 175.288 161.681 175.248 161.868 175.174C162.055 175.093 162.149 174.959 162.149 174.771ZM185.565 181.949C185.565 182.6 185.134 183.158 184.271 183.622C183.409 184.077 182.701 184.305 182.147 184.305C181.48 184.305 180.943 184.142 180.536 183.817C180.129 183.491 179.853 182.995 179.706 182.328C179.112 183.011 178.335 183.52 177.375 183.854C176.414 184.179 175.389 184.342 174.298 184.342C173.053 184.342 172.012 183.963 171.173 183.207C170.343 182.45 169.928 181.465 169.928 180.252C169.928 178.071 170.994 176.737 173.126 176.249C175.259 175.76 177.342 175.427 179.376 175.248V173.27C179.376 172.635 179.104 172.196 178.559 171.952C178.013 171.699 177.427 171.573 176.801 171.573C175.661 171.573 174.795 171.695 174.201 171.939C173.615 172.184 172.931 172.554 172.15 173.05C172.077 173.091 172.003 173.124 171.93 173.148C171.865 173.172 171.796 173.185 171.723 173.185C171.446 173.185 171.198 173.054 170.978 172.794C170.758 172.534 170.648 172.261 170.648 171.976C170.648 171 171.361 170.344 172.785 170.011C174.217 169.669 175.438 169.498 176.447 169.498C178.506 169.498 179.914 169.938 180.67 170.816C181.427 171.687 181.806 173.14 181.806 175.174V181.327C181.806 181.579 181.846 181.791 181.928 181.961C182.017 182.124 182.156 182.206 182.343 182.206C182.709 182.206 183.12 181.986 183.576 181.546C184.031 181.107 184.406 180.887 184.699 180.887C184.878 180.887 185.065 181.009 185.26 181.253C185.464 181.489 185.565 181.721 185.565 181.949ZM179.376 177.079C178.091 177.217 176.63 177.429 174.994 177.713C173.367 177.99 172.553 178.812 172.553 180.179C172.553 180.871 172.809 181.388 173.322 181.729C173.834 182.063 174.445 182.23 175.153 182.23C175.999 182.23 176.772 182.075 177.472 181.766C178.18 181.449 178.815 181.07 179.376 180.631V177.079ZM198.923 171.72C197.947 171.72 197.076 171.935 196.311 172.367C195.546 172.798 194.964 173.311 194.565 173.905V181.852H197.837C198.146 181.852 198.37 181.965 198.508 182.193C198.647 182.413 198.716 182.674 198.716 182.975C198.716 183.243 198.634 183.483 198.472 183.695C198.317 183.898 198.097 184 197.812 184H189.744C189.402 184 189.15 183.902 188.987 183.707C188.824 183.512 188.743 183.259 188.743 182.95C188.743 182.649 188.816 182.393 188.962 182.181C189.117 181.961 189.353 181.852 189.67 181.852H192.063V172.049L190.317 172.477C190.301 172.485 190.277 172.493 190.244 172.501C190.22 172.501 190.187 172.501 190.146 172.501C189.902 172.501 189.674 172.403 189.463 172.208C189.251 172.005 189.146 171.777 189.146 171.524C189.146 171.248 189.202 171.028 189.316 170.865C189.438 170.694 189.613 170.572 189.841 170.499L193.247 169.522C193.28 169.522 193.3 169.518 193.308 169.51C193.316 169.502 193.337 169.498 193.369 169.498H193.442C193.613 169.498 193.76 169.551 193.882 169.657C194.004 169.754 194.065 169.893 194.065 170.072L194.321 172.379C194.883 171.524 195.619 170.833 196.531 170.304C197.45 169.767 198.622 169.498 200.046 169.498C200.315 169.498 200.551 169.579 200.754 169.742C200.966 169.897 201.072 170.117 201.072 170.401V173.001C201.072 173.343 200.974 173.596 200.779 173.758C200.583 173.921 200.331 174.002 200.022 174.002C199.721 174.002 199.46 173.929 199.241 173.783C199.029 173.628 198.923 173.392 198.923 173.075V171.72ZM215.089 171.573C213.998 171.573 212.961 171.935 211.976 172.66C211 173.376 210.511 174.279 210.511 175.37V181.852H212.293C212.603 181.852 212.822 181.965 212.953 182.193C213.091 182.413 213.16 182.674 213.16 182.975C213.16 183.243 213.083 183.483 212.928 183.695C212.774 183.898 212.554 184 212.269 184H206.568C206.227 184 205.974 183.902 205.812 183.707C205.649 183.512 205.567 183.259 205.567 182.95C205.567 182.649 205.641 182.393 205.787 182.181C205.942 181.961 206.178 181.852 206.495 181.852H208.009V172.049L206.263 172.477C206.247 172.485 206.222 172.493 206.19 172.501C206.166 172.501 206.133 172.501 206.092 172.501C205.848 172.501 205.62 172.403 205.409 172.208C205.197 172.005 205.091 171.777 205.091 171.524C205.091 171.248 205.148 171.028 205.262 170.865C205.384 170.694 205.559 170.572 205.787 170.499L209.193 169.522C209.225 169.522 209.246 169.518 209.254 169.51C209.262 169.502 209.282 169.498 209.315 169.498H209.388C209.559 169.498 209.706 169.551 209.828 169.657C209.95 169.754 210.011 169.893 210.011 170.072L210.267 172.379C210.682 171.63 211.378 170.963 212.354 170.377C213.339 169.791 214.401 169.498 215.541 169.498C217.062 169.498 218.271 169.946 219.166 170.841C220.061 171.736 220.509 172.949 220.509 174.479V181.852H222.035C222.344 181.852 222.568 181.965 222.706 182.193C222.844 182.413 222.914 182.674 222.914 182.975C222.914 183.243 222.832 183.483 222.669 183.695C222.515 183.898 222.295 184 222.01 184H216.065C215.724 184 215.471 183.902 215.309 183.707C215.146 183.512 215.064 183.259 215.064 182.95C215.064 182.649 215.138 182.393 215.284 182.181C215.439 181.961 215.675 181.852 215.992 181.852H218.043V174.698C218.043 173.73 217.795 172.969 217.298 172.416C216.81 171.854 216.074 171.573 215.089 171.573ZM231.083 166.581C230.571 166.581 230.131 166.402 229.765 166.043C229.407 165.677 229.228 165.238 229.228 164.725C229.228 164.212 229.407 163.777 229.765 163.419C230.131 163.053 230.571 162.87 231.083 162.87C231.596 162.87 232.032 163.053 232.39 163.419C232.748 163.777 232.927 164.212 232.927 164.725C232.927 165.238 232.748 165.677 232.39 166.043C232.032 166.402 231.596 166.581 231.083 166.581ZM227.324 182.987C227.324 182.686 227.397 182.429 227.543 182.218C227.698 181.998 227.934 181.888 228.251 181.888H229.924V172L228.178 172.477C228.162 172.485 228.138 172.493 228.105 172.501C228.081 172.501 228.048 172.501 228.007 172.501C227.763 172.501 227.535 172.403 227.324 172.208C227.112 172.005 227.006 171.777 227.006 171.524C227.006 171.264 227.063 171.044 227.177 170.865C227.299 170.678 227.474 170.556 227.702 170.499L231.608 169.522C231.633 169.514 231.661 169.51 231.694 169.51C231.726 169.502 231.763 169.498 231.804 169.498C231.983 169.498 232.129 169.551 232.243 169.657C232.365 169.754 232.426 169.893 232.426 170.072V181.888H234.306C234.615 181.888 234.839 182.002 234.978 182.23C235.116 182.45 235.185 182.71 235.185 183.011C235.185 183.28 235.104 183.512 234.941 183.707C234.786 183.902 234.567 184 234.282 184H228.325C227.983 184 227.731 183.91 227.568 183.731C227.405 183.544 227.324 183.296 227.324 182.987ZM249.056 171.573C247.965 171.573 246.928 171.935 245.943 172.66C244.966 173.376 244.478 174.279 244.478 175.37V181.852H246.26C246.569 181.852 246.789 181.965 246.919 182.193C247.058 182.413 247.127 182.674 247.127 182.975C247.127 183.243 247.05 183.483 246.895 183.695C246.74 183.898 246.521 184 246.236 184H240.535C240.193 184 239.941 183.902 239.778 183.707C239.616 183.512 239.534 183.259 239.534 182.95C239.534 182.649 239.607 182.393 239.754 182.181C239.909 181.961 240.145 181.852 240.462 181.852H241.976V172.049L240.23 172.477C240.214 172.485 240.189 172.493 240.157 172.501C240.132 172.501 240.1 172.501 240.059 172.501C239.815 172.501 239.587 172.403 239.375 172.208C239.164 172.005 239.058 171.777 239.058 171.524C239.058 171.248 239.115 171.028 239.229 170.865C239.351 170.694 239.526 170.572 239.754 170.499L243.16 169.522C243.192 169.522 243.213 169.518 243.221 169.51C243.229 169.502 243.249 169.498 243.282 169.498H243.355C243.526 169.498 243.672 169.551 243.794 169.657C243.917 169.754 243.978 169.893 243.978 170.072L244.234 172.379C244.649 171.63 245.345 170.963 246.321 170.377C247.306 169.791 248.368 169.498 249.507 169.498C251.029 169.498 252.238 169.946 253.133 170.841C254.028 171.736 254.476 172.949 254.476 174.479V181.852H256.001C256.311 181.852 256.535 181.965 256.673 182.193C256.811 182.413 256.88 182.674 256.88 182.975C256.88 183.243 256.799 183.483 256.636 183.695C256.482 183.898 256.262 184 255.977 184H250.032C249.69 184 249.438 183.902 249.275 183.707C249.113 183.512 249.031 183.259 249.031 182.95C249.031 182.649 249.104 182.393 249.251 182.181C249.406 181.961 249.642 181.852 249.959 181.852H252.01V174.698C252.01 173.73 251.762 172.969 251.265 172.416C250.777 171.854 250.04 171.573 249.056 171.573ZM261.217 174.527C261.217 172.932 261.824 171.695 263.036 170.816C264.249 169.938 265.677 169.498 267.321 169.498C268.257 169.498 269.103 169.624 269.86 169.876C270.625 170.121 271.276 170.454 271.813 170.877L273.473 169.254C273.839 168.888 274.218 168.66 274.608 168.57C275.007 168.473 275.369 168.424 275.695 168.424C276.085 168.424 276.435 168.501 276.745 168.656C277.062 168.81 277.221 169.091 277.221 169.498C277.221 169.783 277.046 170.051 276.696 170.304C276.354 170.548 275.772 170.67 274.95 170.67H274.938L272.838 172C273.042 172.399 273.233 172.859 273.412 173.38C273.599 173.901 273.693 174.442 273.693 175.003C273.693 176.59 273.066 177.783 271.813 178.58C270.568 179.369 269.07 179.764 267.321 179.764C267.166 179.764 266.987 179.76 266.784 179.752C266.588 179.744 266.389 179.74 266.186 179.74C265.657 179.74 265.156 179.809 264.684 179.947C264.22 180.086 263.988 180.419 263.988 180.948C263.988 181.363 264.241 181.624 264.745 181.729C265.25 181.835 265.783 181.888 266.344 181.888C266.548 181.888 266.747 181.888 266.942 181.888C267.138 181.88 267.313 181.876 267.467 181.876C269.437 181.876 271.15 182.104 272.606 182.56C274.071 183.007 274.804 184.236 274.804 186.246C274.804 188.077 274.018 189.184 272.448 189.566C270.877 189.957 269.152 190.152 267.272 190.152C265.848 190.152 264.489 189.859 263.195 189.273C261.909 188.688 261.266 187.687 261.266 186.271C261.266 185.375 261.445 184.667 261.803 184.146C262.161 183.626 262.658 183.219 263.292 182.926C262.934 182.747 262.584 182.486 262.243 182.145C261.909 181.803 261.742 181.355 261.742 180.802C261.742 180.118 261.921 179.605 262.279 179.264C262.646 178.922 263.118 178.678 263.695 178.531C262.971 178.051 262.377 177.526 261.913 176.957C261.449 176.379 261.217 175.569 261.217 174.527ZM264.489 183.634C264.236 183.886 263.976 184.187 263.708 184.537C263.447 184.887 263.317 185.318 263.317 185.831C263.317 186.669 263.72 187.255 264.525 187.589C265.331 187.931 266.23 188.102 267.223 188.102C268.501 188.102 269.685 188.004 270.775 187.809C271.874 187.621 272.423 187.019 272.423 186.002C272.423 185.107 272.025 184.545 271.227 184.317C270.43 184.098 269.551 183.988 268.59 183.988C268.338 183.988 268.106 183.992 267.895 184C267.691 184 267.5 184 267.321 184C266.946 184 266.556 183.98 266.149 183.939C265.75 183.89 265.197 183.788 264.489 183.634ZM267.492 171.17C266.377 171.17 265.473 171.484 264.782 172.11C264.09 172.729 263.744 173.632 263.744 174.82C263.744 175.903 264.086 176.712 264.77 177.25C265.461 177.787 266.336 178.055 267.394 178.055C268.468 178.055 269.339 177.811 270.006 177.323C270.682 176.834 271.02 175.98 271.02 174.759C271.02 173.62 270.718 172.737 270.116 172.11C269.514 171.484 268.639 171.17 267.492 171.17Z" fill="#0377F9"/>
<path d="M133.296 102.766C106.343 92.8979 86.266 78.8806 85.597 70H85.493C85.053 71.8681 84.708 73.7572 84.46 75.66C82.767 88.7567 85.779 102.026 92.968 113.141C100.157 124.256 111.065 132.506 123.776 136.443C136.488 140.381 150.192 139.755 162.484 134.674C174.777 129.594 184.872 120.385 191 108.662C184.63 114.934 160.219 112.642 133.296 102.766Z" fill="#0377F9"/>
<path d="M191.699 98.0229C194.709 89.8744 174.749 74.9962 147.117 64.7916C119.486 54.5869 94.6469 52.9201 91.6379 61.0686C88.6279 69.2171 108.588 84.0953 136.22 94.2999C163.851 104.505 188.69 106.171 191.699 98.0229Z" fill="#0377F9"/>
<path d="M182.867 93.0748C184.589 88.4113 168.007 77.9913 145.83 69.8009C123.653 61.6105 104.278 58.7514 102.556 63.4148C100.834 68.0782 117.416 78.4983 139.593 86.6886C161.77 94.879 181.144 97.7382 182.867 93.0748Z" fill="white"/>
<path d="M118 68L146.039 74.6444L168 88L141.131 81.8593L118 68Z" fill="#0377F9"/>
<path d="M101 61L110 65" stroke="#0377F9" stroke-width="2" stroke-miterlimit="10" stroke-linecap="round"/>
<path d="M176 91L186 95" stroke="#0377F9" stroke-width="2" stroke-miterlimit="10" stroke-linecap="round"/>
<path d="M188.037 99C187.479 99.0002 186.928 98.8735 186.425 98.6293C185.923 98.3851 185.482 98.0298 185.135 97.59C184.788 97.1501 184.545 96.6371 184.423 96.0892C184.301 95.5413 184.304 94.9728 184.431 94.4262C184.779 92.9364 185.053 91.372 185.253 89.8301C186.62 79.1972 184.22 68.4197 178.474 59.3903C172.728 50.361 164.005 43.6572 153.835 40.4562C143.666 37.2552 132.7 37.7618 122.865 41.8869C113.03 46.012 104.953 53.4919 100.054 63.013C99.8421 63.4674 99.5421 63.8741 99.1701 64.2087C98.7991 64.5433 98.3641 64.7989 97.8911 64.9602C97.4191 65.1215 96.9191 65.185 96.4221 65.1471C95.9251 65.1092 95.4401 64.9706 94.9981 64.7396C94.5551 64.5086 94.163 64.19 93.846 63.8028C93.529 63.4157 93.2921 62.968 93.1511 62.4868C93.0101 62.0055 92.9671 61.5005 93.0251 61.002C93.0831 60.5036 93.2401 60.0221 93.4871 59.5863C99.1971 48.5319 108.592 39.852 120.024 35.0678C131.457 30.2836 144.198 29.7002 156.015 33.4198C167.832 37.1395 177.972 44.925 184.656 55.4119C191.341 65.8988 194.144 78.4182 192.575 90.7761C192.345 92.5639 192.02 94.3666 191.62 96.1172C191.432 96.9331 190.976 97.6614 190.326 98.1845C189.675 98.7076 188.869 98.9949 188.037 99Z" fill="#0377F9"/>
<path d="M156 53C163.18 53 169 47.4036 169 40.5C169 33.5964 163.18 28 156 28C148.82 28 143 33.5964 143 40.5C143 47.4036 148.82 53 156 53Z" fill="white"/>
<path d="M156 48C160.418 48 164 44.4183 164 40C164 35.5817 160.418 32 156 32C151.582 32 148 35.5817 148 40C148 44.4183 151.582 48 156 48Z" fill="#0377F9"/>
<path d="M160.32 31L156 22.3488L174 0L169.637 28.1163L160.32 31Z" fill="#0377F9"/>
<path d="M147 50L150.965 56L158 53.9236L147 50Z" fill="#0377F9"/>
<path d="M94 103C101.779 112.414 111.353 120.437 122.627 125.094C135.448 130.512 149.186 131.492 163 129.243C156.973 132.67 150.233 134.614 143.324 134.918C122.506 136.157 100.967 123.195 94 103.008V103Z" fill="white"/>
</svg>
