<svg width="209" height="38" viewBox="0 0 209 38" fill="none" xmlns="http://www.w3.org/2000/svg">
<path d="M59.6582 24.8789C60.7246 24.8789 61.6794 24.6875 62.5225 24.3047C63.3656 23.9219 63.7871 23.1904 63.7871 22.1104V21.2422H62.748C62.5885 21.2422 62.4655 21.1852 62.3789 21.0713C62.2923 20.9528 62.249 20.8184 62.249 20.668C62.249 20.4993 62.2855 20.3535 62.3584 20.2305C62.4359 20.1029 62.5612 20.0391 62.7344 20.0391H65.5781C65.7513 20.0391 65.8766 20.1029 65.9541 20.2305C66.0316 20.3535 66.0703 20.4993 66.0703 20.668C66.0703 20.8184 66.0247 20.9528 65.9336 21.0713C65.847 21.1852 65.724 21.2422 65.5645 21.2422H64.9902V25.5078C64.9902 25.681 64.9264 25.8063 64.7988 25.8838C64.6758 25.9613 64.5299 26 64.3613 26C64.2109 26 64.0765 25.9567 63.958 25.8701C63.8441 25.779 63.7871 25.6536 63.7871 25.4941V24.6533C63.3906 25.1956 62.8324 25.5853 62.1123 25.8223C61.3968 26.0547 60.5788 26.1709 59.6582 26.1709C57.8581 26.1709 56.3861 25.6263 55.2422 24.5371C54.0983 23.4434 53.5264 21.9941 53.5264 20.1895C53.5264 18.362 54.1143 16.8923 55.29 15.7803C56.4704 14.6683 57.972 14.1123 59.7949 14.1123C60.6198 14.1123 61.333 14.2354 61.9346 14.4814C62.5361 14.723 63.0739 15.0579 63.5479 15.4863V14.7754C63.5479 14.6022 63.6094 14.4769 63.7324 14.3994C63.86 14.3219 64.0081 14.2832 64.1768 14.2832C64.3271 14.2832 64.4593 14.3288 64.5732 14.4199C64.6917 14.5065 64.751 14.6296 64.751 14.7891V17.3457C64.751 17.5052 64.6917 17.6305 64.5732 17.7217C64.4593 17.8083 64.3271 17.8516 64.1768 17.8516C64.0218 17.8516 63.9056 17.7923 63.8281 17.6738C63.7507 17.5508 63.6755 17.4323 63.6025 17.3184C63.1833 16.7305 62.666 16.2656 62.0508 15.9238C61.4401 15.5775 60.6882 15.4043 59.7949 15.4043C58.3958 15.4043 57.2998 15.8532 56.5068 16.751C55.7139 17.6442 55.3174 18.7904 55.3174 20.1895C55.3174 21.5703 55.6979 22.6982 56.459 23.5732C57.2246 24.4437 58.291 24.8789 59.6582 24.8789ZM72.8535 19.041C71.9876 19.041 71.3154 19.3213 70.8369 19.8818C70.3629 20.4424 70.1259 21.1556 70.1259 22.0215C70.1259 22.8919 70.3629 23.6074 70.8369 24.168C71.3154 24.7285 71.9876 25.0088 72.8535 25.0088C73.6966 25.0088 74.3483 24.724 74.8086 24.1543C75.2688 23.5846 75.499 22.8737 75.499 22.0215C75.499 21.1693 75.2688 20.4606 74.8086 19.8955C74.3483 19.3258 73.6966 19.041 72.8535 19.041ZM72.8535 26.1709C71.5911 26.1709 70.568 25.7949 69.7841 25.043C69.0003 24.291 68.6084 23.2839 68.6084 22.0215C68.6084 20.7546 69.0003 19.7474 69.7841 19C70.5726 18.2526 71.5957 17.8789 72.8535 17.8789C74.0931 17.8789 75.0957 18.2594 75.8613 19.0205C76.6269 19.777 77.0097 20.7773 77.0097 22.0215C77.0097 23.2656 76.6269 24.2682 75.8613 25.0293C75.0957 25.7904 74.0931 26.1709 72.8535 26.1709ZM80.1083 20.1143C80.1083 19.2347 80.4228 18.6423 81.0517 18.3369C81.6806 18.0316 82.3528 17.8789 83.0683 17.8789C83.5331 17.8789 83.9934 17.9769 84.4491 18.1729C84.9049 18.3643 85.217 18.6104 85.3857 18.9111L85.3925 18.3301C85.3925 18.1888 85.4426 18.0771 85.5429 17.9951C85.6432 17.9085 85.7639 17.8652 85.9052 17.8652C86.1057 17.8652 86.2561 17.9108 86.3564 18.002C86.4566 18.0931 86.5068 18.2253 86.5068 18.3984L86.4794 20.374C86.4612 20.529 86.4019 20.6475 86.3017 20.7295C86.2014 20.807 86.0738 20.8457 85.9189 20.8457C85.7685 20.8457 85.6682 20.8001 85.6181 20.709C85.568 20.6178 85.5201 20.488 85.4745 20.3193C85.3196 19.8408 84.9983 19.474 84.5107 19.2188C84.0276 18.9635 83.5422 18.8359 83.0546 18.8359C82.6353 18.8359 82.2685 18.918 81.954 19.082C81.6396 19.2461 81.4823 19.4945 81.4823 19.8271C81.4823 20.1143 81.5758 20.3376 81.7626 20.4971C81.9495 20.6566 82.2525 20.7887 82.6718 20.8936L84.4218 21.4678C85.0325 21.6729 85.5862 21.9326 86.0829 22.2471C86.5797 22.5615 86.828 23.1038 86.828 23.874C86.828 24.6305 86.5683 25.2048 86.0487 25.5967C85.5338 25.9886 84.8092 26.1846 83.8749 26.1846C83.3873 26.1846 82.8518 26.1071 82.2685 25.9521C81.6851 25.7926 81.2636 25.5693 81.0038 25.2822C81.0038 25.583 80.9491 25.779 80.8398 25.8701C80.7349 25.9567 80.6051 26 80.4501 26C80.2769 26 80.1311 25.9613 80.0126 25.8838C79.8987 25.8063 79.8417 25.6764 79.8417 25.4941V23.1836C79.8463 23.0423 79.901 22.9352 80.0058 22.8623C80.1106 22.7894 80.2291 22.7529 80.3612 22.7529C80.5618 22.7529 80.7008 22.8008 80.7782 22.8965C80.8603 22.9876 80.9218 23.1221 80.9628 23.2998C81.1041 23.9196 81.4299 24.3844 81.9404 24.6943C82.4508 25.0042 83.0706 25.1592 83.7997 25.1592C84.2418 25.1592 84.62 25.0749 84.9345 24.9062C85.2535 24.7376 85.413 24.4619 85.413 24.0791C85.413 23.6963 85.3219 23.416 85.1396 23.2383C84.9573 23.0605 84.6337 22.901 84.1689 22.7598L82.3095 22.1787C81.7307 21.9964 81.218 21.7549 80.7714 21.4541C80.3293 21.1533 80.1083 20.7067 80.1083 20.1143ZM97.118 22.0215C97.118 21.2148 96.9152 20.5176 96.5096 19.9297C96.1086 19.3372 95.5139 19.041 94.7255 19.041C94.1239 19.041 93.6044 19.1549 93.1669 19.3828C92.7339 19.6107 92.3807 19.9023 92.1073 20.2578V24.0654C92.3944 24.3525 92.7522 24.5827 93.1805 24.7559C93.6135 24.9245 94.1148 25.0088 94.6845 25.0088C95.482 25.0088 96.0858 24.7126 96.496 24.1201C96.9107 23.5231 97.118 22.8236 97.118 22.0215ZM98.6288 22.0215C98.6288 23.2337 98.271 24.2295 97.5555 25.0088C96.8401 25.7835 95.883 26.1709 94.6845 26.1709C94.1239 26.1709 93.634 26.0866 93.2147 25.918C92.8 25.7493 92.4309 25.5283 92.1073 25.2549V28.7275H93.4882C93.6613 28.7275 93.7867 28.7913 93.8641 28.9189C93.9416 29.0465 93.9804 29.1947 93.9804 29.3633C93.9804 29.5137 93.9348 29.6458 93.8436 29.7598C93.757 29.8737 93.634 29.9307 93.4745 29.9307H89.8925C89.7011 29.9307 89.5598 29.876 89.4686 29.7666C89.3775 29.6572 89.3319 29.516 89.3319 29.3428C89.3319 29.1742 89.3729 29.0283 89.455 28.9053C89.5415 28.7868 89.6737 28.7275 89.8514 28.7275H90.7059V19.3076L89.7284 19.5469C89.7193 19.5514 89.7056 19.556 89.6874 19.5605C89.6692 19.5605 89.6486 19.5605 89.6259 19.5605C89.4891 19.5605 89.3615 19.5059 89.243 19.3965C89.1246 19.2826 89.0653 19.1549 89.0653 19.0137C89.0653 18.8587 89.0995 18.7357 89.1679 18.6445C89.2362 18.5488 89.3342 18.4805 89.4618 18.4395L91.3622 17.8926C91.3804 17.8926 91.3918 17.8903 91.3964 17.8857C91.4009 17.8812 91.4123 17.8789 91.4305 17.8789H91.4784C91.5741 17.8789 91.6561 17.9085 91.7245 17.9678C91.7929 18.0225 91.827 18.0999 91.827 18.2002L91.9637 19.4922C92.1825 19.0273 92.5471 18.6423 93.0575 18.3369C93.5679 18.0316 94.1558 17.8789 94.8212 17.8789C96.0152 17.8789 96.9471 18.2708 97.6171 19.0547C98.2915 19.834 98.6288 20.8229 98.6288 22.0215ZM102.589 22.1787C102.589 23.0719 102.867 23.7533 103.423 24.2227C103.983 24.6875 104.671 24.9199 105.487 24.9199C106.066 24.9199 106.519 24.8128 106.847 24.5986C107.18 24.3799 107.497 24.1315 107.798 23.8535C107.866 23.7943 107.939 23.751 108.016 23.7236C108.094 23.6917 108.171 23.6758 108.249 23.6758C108.431 23.6758 108.586 23.7327 108.714 23.8467C108.841 23.9561 108.905 24.1042 108.905 24.291C108.905 24.8743 108.481 25.3346 107.634 25.6719C106.791 26.0046 106.057 26.1709 105.432 26.1709C104.184 26.1709 103.154 25.8018 102.343 25.0635C101.536 24.3206 101.133 23.3226 101.133 22.0693C101.133 20.8298 101.504 19.8226 102.247 19.0479C102.99 18.2686 103.997 17.8789 105.268 17.8789C106.18 17.8789 107.012 18.1956 107.764 18.8291C108.515 19.458 108.891 20.2715 108.891 21.2695C108.891 21.6113 108.784 21.8164 108.57 21.8848C108.361 21.9531 108.094 22.0033 107.77 22.0352L102.589 22.1787ZM107.176 20.832C107.176 20.1803 106.975 19.7201 106.574 19.4512C106.178 19.1777 105.742 19.041 105.268 19.041C104.466 19.041 103.828 19.2393 103.354 19.6357C102.885 20.0322 102.621 20.5586 102.561 21.2148L106.67 21.126C106.797 21.1214 106.914 21.0986 107.018 21.0576C107.123 21.012 107.176 20.9368 107.176 20.832ZM114.642 14.1396C114.738 14.1396 114.822 14.1715 114.895 14.2354C114.968 14.2946 115.005 14.3743 115.005 14.4746V24.7969H116.673C116.846 24.7969 116.971 24.8607 117.049 24.9883C117.126 25.1113 117.165 25.2572 117.165 25.4258C117.165 25.5762 117.119 25.7106 117.028 25.8291C116.942 25.943 116.818 26 116.659 26H112.093C111.901 26 111.76 25.9453 111.669 25.8359C111.578 25.7266 111.532 25.5853 111.532 25.4121C111.532 25.2435 111.573 25.0999 111.655 24.9814C111.742 24.8584 111.874 24.7969 112.052 24.7969H113.603V15.6094L111.997 16.0332C111.979 16.0332 111.967 16.0355 111.963 16.04C111.958 16.0446 111.947 16.0469 111.929 16.0469C111.787 16.0469 111.66 15.9854 111.546 15.8623C111.436 15.7347 111.382 15.6003 111.382 15.459C111.382 15.263 111.432 15.1354 111.532 15.0762C111.637 15.0124 111.764 14.9577 111.915 14.9121L114.547 14.1533C114.556 14.1488 114.567 14.1465 114.581 14.1465C114.599 14.1419 114.62 14.1396 114.642 14.1396ZM130.034 14.8574C130.034 15.026 129.995 15.1742 129.918 15.3018C129.84 15.4248 129.715 15.4863 129.542 15.4863H128.017V24.7969H132.83C133.217 24.7969 133.55 24.7422 133.828 24.6328C134.11 24.5234 134.268 24.2887 134.3 23.9287L134.498 22.0078C134.516 21.8574 134.573 21.748 134.669 21.6797C134.769 21.6113 134.899 21.5771 135.058 21.5771C135.227 21.5771 135.373 21.6227 135.496 21.7139C135.623 21.805 135.687 21.9417 135.687 22.124L135.38 25.5352C135.366 25.6628 135.325 25.7721 135.257 25.8633C135.188 25.9544 135.09 26 134.963 26H124.374C124.214 26 124.089 25.943 123.998 25.8291C123.911 25.7106 123.868 25.5762 123.868 25.4258C123.868 25.2572 123.907 25.1113 123.984 24.9883C124.062 24.8607 124.187 24.7969 124.36 24.7969H126.418V15.4863H124.784C124.611 15.4863 124.485 15.4248 124.408 15.3018C124.33 15.1742 124.292 15.026 124.292 14.8574C124.292 14.707 124.335 14.5749 124.422 14.4609C124.513 14.3424 124.638 14.2832 124.798 14.2832H129.528C129.688 14.2832 129.811 14.3424 129.897 14.4609C129.988 14.5749 130.034 14.707 130.034 14.8574ZM139.661 22.1787C139.661 23.0719 139.939 23.7533 140.495 24.2227C141.055 24.6875 141.744 24.9199 142.559 24.9199C143.138 24.9199 143.591 24.8128 143.92 24.5986C144.252 24.3799 144.569 24.1315 144.87 23.8535C144.938 23.7943 145.011 23.751 145.089 23.7236C145.166 23.6917 145.244 23.6758 145.321 23.6758C145.503 23.6758 145.658 23.7327 145.786 23.8467C145.913 23.9561 145.977 24.1042 145.977 24.291C145.977 24.8743 145.553 25.3346 144.706 25.6719C143.863 26.0046 143.129 26.1709 142.505 26.1709C141.256 26.1709 140.226 25.8018 139.415 25.0635C138.608 24.3206 138.205 23.3226 138.205 22.0693C138.205 20.8298 138.576 19.8226 139.319 19.0479C140.062 18.2686 141.069 17.8789 142.341 17.8789C143.252 17.8789 144.084 18.1956 144.836 18.8291C145.588 19.458 145.964 20.2715 145.964 21.2695C145.964 21.6113 145.856 21.8164 145.642 21.8848C145.433 21.9531 145.166 22.0033 144.842 22.0352L139.661 22.1787ZM144.248 20.832C144.248 20.1803 144.047 19.7201 143.646 19.4512C143.25 19.1777 142.814 19.041 142.341 19.041C141.538 19.041 140.9 19.2393 140.426 19.6357C139.957 20.0322 139.693 20.5586 139.633 21.2148L143.742 21.126C143.869 21.1214 143.986 21.0986 144.091 21.0576C144.195 21.012 144.248 20.9368 144.248 20.832ZM157.361 24.8516C157.361 25.2161 157.119 25.5283 156.636 25.7881C156.153 26.0433 155.757 26.1709 155.447 26.1709C155.073 26.1709 154.772 26.0798 154.545 25.8975C154.317 25.7152 154.162 25.4372 154.08 25.0635C153.747 25.4463 153.312 25.7311 152.774 25.918C152.236 26.1003 151.662 26.1914 151.051 26.1914C150.354 26.1914 149.771 25.9795 149.301 25.5557C148.837 25.1318 148.604 24.5804 148.604 23.9014C148.604 22.68 149.201 21.9326 150.395 21.6592C151.589 21.3857 152.756 21.1989 153.895 21.0986V19.9912C153.895 19.6357 153.742 19.3896 153.437 19.2529C153.132 19.1117 152.804 19.041 152.453 19.041C151.815 19.041 151.329 19.1094 150.997 19.2461C150.669 19.3828 150.286 19.5902 149.848 19.8682C149.807 19.891 149.766 19.9092 149.725 19.9229C149.689 19.9365 149.65 19.9434 149.609 19.9434C149.454 19.9434 149.315 19.8704 149.192 19.7246C149.069 19.5788 149.007 19.4261 149.007 19.2666C149.007 18.7197 149.406 18.3529 150.204 18.166C151.006 17.9746 151.689 17.8789 152.255 17.8789C153.408 17.8789 154.196 18.125 154.62 18.6172C155.044 19.1048 155.256 19.9183 155.256 21.0576V24.5029C155.256 24.6442 155.278 24.7627 155.324 24.8584C155.374 24.9495 155.451 24.9951 155.556 24.9951C155.761 24.9951 155.992 24.8721 156.247 24.626C156.502 24.3799 156.712 24.2568 156.876 24.2568C156.976 24.2568 157.081 24.3252 157.19 24.4619C157.304 24.5941 157.361 24.724 157.361 24.8516ZM153.895 22.124C153.175 22.2015 152.357 22.32 151.441 22.4795C150.53 22.6344 150.074 23.0947 150.074 23.8604C150.074 24.2477 150.217 24.5371 150.505 24.7285C150.792 24.9154 151.133 25.0088 151.53 25.0088C152.004 25.0088 152.437 24.9222 152.829 24.749C153.225 24.5713 153.581 24.3594 153.895 24.1133V22.124ZM164.841 19.123C164.295 19.123 163.807 19.2438 163.379 19.4854C162.95 19.7269 162.624 20.014 162.401 20.3467V24.7969H164.233C164.406 24.7969 164.532 24.8607 164.609 24.9883C164.686 25.1113 164.725 25.2572 164.725 25.4258C164.725 25.5762 164.68 25.7106 164.588 25.8291C164.502 25.943 164.379 26 164.219 26H159.701C159.509 26 159.368 25.9453 159.277 25.8359C159.186 25.7266 159.14 25.5853 159.14 25.4121C159.14 25.2435 159.181 25.0999 159.263 24.9814C159.35 24.8584 159.482 24.7969 159.66 24.7969H161V19.3076L160.022 19.5469C160.013 19.5514 159.999 19.556 159.981 19.5605C159.967 19.5605 159.949 19.5605 159.926 19.5605C159.79 19.5605 159.662 19.5059 159.544 19.3965C159.425 19.2826 159.366 19.1549 159.366 19.0137C159.366 18.8587 159.398 18.7357 159.462 18.6445C159.53 18.5488 159.628 18.4805 159.755 18.4395L161.663 17.8926C161.681 17.8926 161.692 17.8903 161.697 17.8857C161.701 17.8812 161.713 17.8789 161.731 17.8789H161.772C161.868 17.8789 161.95 17.9085 162.018 17.9678C162.087 18.0225 162.121 18.0999 162.121 18.2002L162.264 19.4922C162.579 19.0137 162.991 18.6263 163.502 18.3301C164.017 18.0293 164.673 17.8789 165.47 17.8789C165.621 17.8789 165.753 17.9245 165.867 18.0156C165.985 18.1022 166.045 18.2253 166.045 18.3848V19.8408C166.045 20.0322 165.99 20.1735 165.88 20.2646C165.771 20.3558 165.63 20.4014 165.457 20.4014C165.288 20.4014 165.142 20.3604 165.019 20.2783C164.901 20.1917 164.841 20.0596 164.841 19.8818V19.123ZM173.894 19.041C173.283 19.041 172.702 19.2438 172.151 19.6494C171.604 20.0505 171.331 20.5563 171.331 21.167V24.7969H172.329C172.502 24.7969 172.625 24.8607 172.698 24.9883C172.775 25.1113 172.814 25.2572 172.814 25.4258C172.814 25.5762 172.771 25.7106 172.684 25.8291C172.598 25.943 172.475 26 172.315 26H169.123C168.931 26 168.79 25.9453 168.699 25.8359C168.608 25.7266 168.562 25.5853 168.562 25.4121C168.562 25.2435 168.603 25.0999 168.685 24.9814C168.772 24.8584 168.904 24.7969 169.082 24.7969H169.929V19.3076L168.952 19.5469C168.943 19.5514 168.929 19.556 168.911 19.5605C168.897 19.5605 168.879 19.5605 168.856 19.5605C168.719 19.5605 168.592 19.5059 168.473 19.3965C168.355 19.2826 168.295 19.1549 168.295 19.0137C168.295 18.8587 168.327 18.7357 168.391 18.6445C168.46 18.5488 168.558 18.4805 168.685 18.4395L170.592 17.8926C170.611 17.8926 170.622 17.8903 170.627 17.8857C170.631 17.8812 170.642 17.8789 170.661 17.8789H170.702C170.797 17.8789 170.879 17.9085 170.948 17.9678C171.016 18.0225 171.05 18.0999 171.05 18.2002L171.194 19.4922C171.426 19.0729 171.816 18.6992 172.363 18.3711C172.914 18.043 173.509 17.8789 174.147 17.8789C174.999 17.8789 175.676 18.1296 176.177 18.6309C176.679 19.1322 176.929 19.8112 176.929 20.668V24.7969H177.784C177.957 24.7969 178.082 24.8607 178.16 24.9883C178.237 25.1113 178.276 25.2572 178.276 25.4258C178.276 25.5762 178.23 25.7106 178.139 25.8291C178.053 25.943 177.93 26 177.77 26H174.441C174.25 26 174.108 25.9453 174.017 25.8359C173.926 25.7266 173.88 25.5853 173.88 25.4121C173.88 25.2435 173.921 25.0999 174.003 24.9814C174.09 24.8584 174.222 24.7969 174.4 24.7969H175.548V20.791C175.548 20.2487 175.409 19.8226 175.131 19.5127C174.858 19.1982 174.446 19.041 173.894 19.041ZM182.851 16.2451C182.564 16.2451 182.318 16.1449 182.113 15.9443C181.912 15.7393 181.812 15.4932 181.812 15.2061C181.812 14.9189 181.912 14.6751 182.113 14.4746C182.318 14.2695 182.564 14.167 182.851 14.167C183.138 14.167 183.382 14.2695 183.583 14.4746C183.783 14.6751 183.883 14.9189 183.883 15.2061C183.883 15.4932 183.783 15.7393 183.583 15.9443C183.382 16.1449 183.138 16.2451 182.851 16.2451ZM180.746 25.4326C180.746 25.264 180.787 25.1204 180.869 25.002C180.955 24.8789 181.087 24.8174 181.265 24.8174H182.202V19.2803L181.224 19.5469C181.215 19.5514 181.201 19.556 181.183 19.5605C181.169 19.5605 181.151 19.5605 181.128 19.5605C180.992 19.5605 180.864 19.5059 180.746 19.3965C180.627 19.2826 180.568 19.1549 180.568 19.0137C180.568 18.8678 180.6 18.7448 180.664 18.6445C180.732 18.5397 180.83 18.4714 180.958 18.4395L183.145 17.8926C183.159 17.888 183.175 17.8857 183.193 17.8857C183.211 17.8812 183.232 17.8789 183.254 17.8789C183.355 17.8789 183.437 17.9085 183.501 17.9678C183.569 18.0225 183.603 18.0999 183.603 18.2002V24.8174H184.656C184.829 24.8174 184.954 24.8812 185.032 25.0088C185.109 25.1318 185.148 25.2777 185.148 25.4463C185.148 25.5967 185.102 25.7266 185.011 25.8359C184.925 25.9453 184.802 26 184.642 26H181.306C181.115 26 180.973 25.9499 180.882 25.8496C180.791 25.7448 180.746 25.6058 180.746 25.4326ZM192.916 19.041C192.305 19.041 191.724 19.2438 191.172 19.6494C190.625 20.0505 190.352 20.5563 190.352 21.167V24.7969H191.35C191.523 24.7969 191.646 24.8607 191.719 24.9883C191.797 25.1113 191.835 25.2572 191.835 25.4258C191.835 25.5762 191.792 25.7106 191.706 25.8291C191.619 25.943 191.496 26 191.336 26H188.144C187.953 26 187.811 25.9453 187.72 25.8359C187.629 25.7266 187.583 25.5853 187.583 25.4121C187.583 25.2435 187.624 25.0999 187.707 24.9814C187.793 24.8584 187.925 24.7969 188.103 24.7969H188.951V19.3076L187.973 19.5469C187.964 19.5514 187.95 19.556 187.932 19.5605C187.918 19.5605 187.9 19.5605 187.877 19.5605C187.741 19.5605 187.613 19.5059 187.495 19.3965C187.376 19.2826 187.317 19.1549 187.317 19.0137C187.317 18.8587 187.349 18.7357 187.413 18.6445C187.481 18.5488 187.579 18.4805 187.707 18.4395L189.614 17.8926C189.632 17.8926 189.643 17.8903 189.648 17.8857C189.652 17.8812 189.664 17.8789 189.682 17.8789H189.723C189.819 17.8789 189.901 17.9085 189.969 17.9678C190.038 18.0225 190.072 18.0999 190.072 18.2002L190.215 19.4922C190.448 19.0729 190.837 18.6992 191.384 18.3711C191.936 18.043 192.53 17.8789 193.168 17.8789C194.021 17.8789 194.697 18.1296 195.199 18.6309C195.7 19.1322 195.951 19.8112 195.951 20.668V24.7969H196.805C196.978 24.7969 197.104 24.8607 197.181 24.9883C197.259 25.1113 197.297 25.2572 197.297 25.4258C197.297 25.5762 197.252 25.7106 197.161 25.8291C197.074 25.943 196.951 26 196.791 26H193.462C193.271 26 193.13 25.9453 193.039 25.8359C192.947 25.7266 192.902 25.5853 192.902 25.4121C192.902 25.2435 192.943 25.0999 193.025 24.9814C193.111 24.8584 193.244 24.7969 193.421 24.7969H194.57V20.791C194.57 20.2487 194.431 19.8226 194.153 19.5127C193.879 19.1982 193.467 19.041 192.916 19.041ZM199.726 20.6953C199.726 19.8021 200.066 19.1094 200.745 18.6172C201.424 18.125 202.223 17.8789 203.144 17.8789C203.668 17.8789 204.142 17.9495 204.566 18.0908C204.994 18.2275 205.359 18.4144 205.66 18.6514L206.589 17.7422C206.794 17.5371 207.006 17.4095 207.225 17.3594C207.448 17.3047 207.651 17.2773 207.833 17.2773C208.052 17.2773 208.248 17.3206 208.421 17.4072C208.599 17.4938 208.688 17.651 208.688 17.8789C208.688 18.0384 208.59 18.1888 208.394 18.3301C208.203 18.4668 207.877 18.5352 207.416 18.5352H207.41L206.234 19.2803C206.348 19.5036 206.455 19.7611 206.555 20.0527C206.66 20.3444 206.712 20.6475 206.712 20.9619C206.712 21.8506 206.361 22.5182 205.66 22.9648C204.962 23.4069 204.124 23.6279 203.144 23.6279C203.057 23.6279 202.957 23.6257 202.843 23.6211C202.734 23.6165 202.622 23.6143 202.508 23.6143C202.212 23.6143 201.932 23.653 201.667 23.7305C201.408 23.8079 201.278 23.9948 201.278 24.291C201.278 24.5234 201.419 24.6693 201.702 24.7285C201.984 24.7878 202.283 24.8174 202.597 24.8174C202.711 24.8174 202.823 24.8174 202.932 24.8174C203.041 24.8128 203.139 24.8105 203.226 24.8105C204.329 24.8105 205.288 24.9382 206.104 25.1934C206.924 25.444 207.334 26.1322 207.334 27.2578C207.334 28.2832 206.895 28.903 206.015 29.1172C205.136 29.3359 204.169 29.4453 203.117 29.4453C202.319 29.4453 201.558 29.2812 200.833 28.9531C200.113 28.625 199.753 28.0645 199.753 27.2715C199.753 26.7702 199.854 26.3737 200.054 26.082C200.255 25.7904 200.533 25.5625 200.888 25.3984C200.688 25.2982 200.492 25.1523 200.3 24.9609C200.113 24.7695 200.02 24.5189 200.02 24.209C200.02 23.8262 200.12 23.5391 200.321 23.3477C200.526 23.1562 200.79 23.0195 201.114 22.9375C200.708 22.6686 200.375 22.3747 200.116 22.0557C199.856 21.7321 199.726 21.2786 199.726 20.6953ZM201.558 25.7949C201.417 25.9362 201.271 26.1048 201.121 26.3008C200.975 26.4967 200.902 26.7383 200.902 27.0254C200.902 27.4948 201.127 27.8229 201.579 28.0098C202.03 28.2012 202.533 28.2969 203.089 28.2969C203.805 28.2969 204.468 28.2422 205.079 28.1328C205.694 28.028 206.001 27.6908 206.001 27.1211C206.001 26.6198 205.778 26.3053 205.331 26.1777C204.885 26.0547 204.393 25.9932 203.855 25.9932C203.714 25.9932 203.584 25.9954 203.465 26C203.351 26 203.244 26 203.144 26C202.934 26 202.716 25.9886 202.488 25.9658C202.264 25.9385 201.955 25.8815 201.558 25.7949ZM203.24 18.8154C202.615 18.8154 202.109 18.9909 201.722 19.3418C201.335 19.6882 201.141 20.194 201.141 20.8594C201.141 21.4655 201.332 21.9189 201.715 22.2197C202.103 22.5205 202.593 22.6709 203.185 22.6709C203.787 22.6709 204.274 22.5342 204.648 22.2607C205.026 21.9873 205.215 21.5088 205.215 20.8252C205.215 20.1872 205.047 19.6927 204.709 19.3418C204.372 18.9909 203.882 18.8154 203.24 18.8154Z" fill="white"/>
<path d="M13.8214 28.0225C6.26452 25.3052 0.635451 21.4454 0.447885 19H0.418708C0.295151 19.5144 0.198465 20.0346 0.129022 20.5585C-0.34576 24.1649 0.498767 27.8189 2.51444 30.8794C4.53012 33.94 7.5882 36.2117 11.1522 37.2959C14.7162 38.3802 18.5585 38.2078 22.0049 36.8089C25.4514 35.4101 28.282 32.8741 30 29.646C28.214 31.373 21.3699 30.7419 13.8214 28.0225Z" fill="white"/>
<path d="M29.7588 27.0306C30.5795 24.8083 25.1359 20.7507 17.6002 17.9676C10.0644 15.1845 3.2902 14.7299 2.46947 16.9522C1.64873 19.1745 7.09231 23.2322 14.628 26.0153C22.1638 28.7983 28.938 29.2529 29.7588 27.0306Z" fill="white"/>
<path d="M27.3499 25.6812C27.8196 24.4094 23.2973 21.5675 17.249 19.3338C11.2007 17.1001 5.91687 16.3203 5.44716 17.5922C4.97745 18.864 9.49977 21.7058 15.548 23.9395C21.5963 26.1733 26.8802 26.953 27.3499 25.6812Z" fill="#0377F9"/>
<path d="M9 19L17.4118 20.6611L24 24L15.9392 22.4648L9 19Z" fill="white"/>
<path d="M5 17L8 18" stroke="white" stroke-width="2" stroke-miterlimit="10" stroke-linecap="round"/>
<path d="M25 25L28 26" stroke="white" stroke-width="2" stroke-miterlimit="10" stroke-linecap="round"/>
<path d="M28.6599 27C28.5092 27.0001 28.3605 26.9646 28.2248 26.8964C28.0892 26.8282 27.9701 26.7289 27.8765 26.606C27.7828 26.4831 27.7171 26.3398 27.6842 26.1867C27.6513 26.0336 27.652 25.8748 27.6864 25.722C27.7803 25.3057 27.8543 24.8687 27.9083 24.4378C28.2773 21.4669 27.6293 18.4555 26.078 15.9326C24.5267 13.4097 22.1713 11.5366 19.4255 10.6422C16.6797 9.74778 13.7191 9.88931 11.0635 11.0419C8.40797 12.1945 6.22733 14.2845 4.90457 16.9448C4.84746 17.0718 4.7663 17.1854 4.66596 17.2789C4.56562 17.3724 4.44817 17.4438 4.32066 17.4889C4.19316 17.5339 4.05822 17.5517 3.92396 17.5411C3.78969 17.5305 3.65887 17.4918 3.53933 17.4272C3.4198 17.3627 3.31403 17.2737 3.22837 17.1655C3.1427 17.0573 3.07891 16.9322 3.04082 16.7978C3.00273 16.6633 2.99113 16.5222 3.00672 16.3829C3.02231 16.2437 3.06475 16.1091 3.13152 15.9874C4.67328 12.8986 7.2098 10.4734 10.2966 9.13659C13.3834 7.79982 16.8235 7.63681 20.0141 8.67613C23.2047 9.71545 25.9423 11.8908 27.7471 14.821C29.5519 17.7511 30.3088 21.2492 29.8852 24.7021C29.8232 25.2017 29.7353 25.7054 29.6273 26.1945C29.5765 26.4225 29.4534 26.626 29.2779 26.7721C29.1023 26.9183 28.8846 26.9986 28.6599 27Z" fill="white"/>
<path d="M20.5 15C22.433 15 24 13.433 24 11.5C24 9.567 22.433 8 20.5 8C18.567 8 17 9.567 17 11.5C17 13.433 18.567 15 20.5 15Z" fill="#0377F9"/>
<path d="M20 14C21.1046 14 22 12.8807 22 11.5C22 10.1193 21.1046 9 20 9C18.8954 9 18 10.1193 18 11.5C18 12.8807 18.8954 14 20 14Z" fill="white"/>
<path d="M21.2 8L20 5.76744L25 0L23.788 7.25581L21.2 8Z" fill="white"/>
<path d="M18 14L18.7209 16L20 15.3079L18 14Z" fill="white"/>
</svg>
