<svg width="193" height="175" viewBox="0 0 193 175" fill="none" xmlns="http://www.w3.org/2000/svg">
<g clip-path="url(#clip0_570_728)">
<path d="M133.13 5.43238L14.499 49.8788L59.0291 168.733L177.66 124.287L133.13 5.43238Z" fill="#0377F9"/>
<path d="M36.5947 56.6977L16.4209 64.2561L23.9935 84.4679L44.1673 76.9096L36.5947 56.6977Z" fill="white"/>
<path d="M50.9365 94.6742L30.7627 102.233L38.3353 122.444L58.5091 114.886L50.9365 94.6742Z" fill="white"/>
<path d="M64.543 130.991L44.3691 138.549L51.9417 158.761L72.1156 151.203L64.543 130.991Z" fill="white"/>
<path d="M141.73 18.4973L121.557 26.0557L129.129 46.2675L149.303 38.7091L141.73 18.4973Z" fill="white"/>
<path d="M156.078 56.4714L135.904 64.0297L143.477 84.2415L163.651 76.6832L156.078 56.4714Z" fill="white"/>
<path d="M169.685 92.788L149.511 100.346L157.083 120.558L177.257 113L169.685 92.788Z" fill="white"/>
<path d="M91.9025 109.453L79.6266 75.5443L115.072 81.8871L91.9025 109.453Z" fill="white"/>
<path d="M147.629 4.34853e-05L139.721 2.96313L184.251 121.817L192.16 118.854L147.629 4.34853e-05Z" fill="#0377F9"/>
<path d="M7.90872 52.348L0 55.3111L44.5301 174.165L52.4388 171.202L7.90872 52.348Z" fill="#0377F9"/>
</g>
<defs>
<clipPath id="clip0_570_728">
<rect width="157.651" height="126.922" fill="white" transform="translate(0 55.3111) rotate(-20.539)"/>
</clipPath>
</defs>
</svg>
